<mxfile host="app.diagrams.net" agent="Mozilla/5.0 (Macintosh; Intel Mac OS X 10_15_7) AppleWebKit/537.36 (KHTML, like Gecko) Chrome/131.0.0.0 Safari/537.36" version="25.0.0">
  <diagram name="Page-1" id="HxHMXl7Tirux2Snkjtcd">
    <mxGraphModel dx="1511" dy="1186" grid="1" gridSize="10" guides="1" tooltips="1" connect="1" arrows="1" fold="1" page="1" pageScale="1" pageWidth="850" pageHeight="1100" math="0" shadow="0">
      <root>
        <mxCell id="0" />
        <mxCell id="1" parent="0" />
        <mxCell id="UZv0-1ZAQY09o0ULd59S-2" value="" style="rounded=0;whiteSpace=wrap;html=1;dashed=1;movable=0;resizable=0;rotatable=0;deletable=0;editable=0;locked=1;connectable=0;" vertex="1" parent="1">
          <mxGeometry x="80" y="400" width="400" height="240" as="geometry" />
        </mxCell>
        <mxCell id="UZv0-1ZAQY09o0ULd59S-3" value="Клиентское приложение" style="rounded=0;whiteSpace=wrap;html=1;fontSize=18;" vertex="1" parent="1">
          <mxGeometry x="80" y="210" width="160" height="60" as="geometry" />
        </mxCell>
        <mxCell id="UZv0-1ZAQY09o0ULd59S-4" value="Внешние интеграции" style="rounded=0;whiteSpace=wrap;html=1;fontSize=18;" vertex="1" parent="1">
          <mxGeometry x="280" y="190" width="160" height="60" as="geometry" />
        </mxCell>
        <mxCell id="UZv0-1ZAQY09o0ULd59S-6" value="Внешние интеграции" style="rounded=0;whiteSpace=wrap;html=1;fontSize=18;" vertex="1" parent="1">
          <mxGeometry x="290" y="200" width="160" height="60" as="geometry" />
        </mxCell>
        <mxCell id="UZv0-1ZAQY09o0ULd59S-7" value="Внешние интеграции" style="rounded=0;whiteSpace=wrap;html=1;fontSize=18;" vertex="1" parent="1">
          <mxGeometry x="300" y="210" width="160" height="60" as="geometry" />
        </mxCell>
        <mxCell id="UZv0-1ZAQY09o0ULd59S-8" value="Kubernetes" style="text;html=1;align=center;verticalAlign=middle;whiteSpace=wrap;rounded=0;fontSize=18;" vertex="1" parent="1">
          <mxGeometry x="90" y="400" width="90" height="30" as="geometry" />
        </mxCell>
        <mxCell id="UZv0-1ZAQY09o0ULd59S-9" value="IAG" style="rounded=0;whiteSpace=wrap;html=1;fontSize=18;" vertex="1" parent="1">
          <mxGeometry x="100" y="430" width="190" height="50" as="geometry" />
        </mxCell>
        <mxCell id="UZv0-1ZAQY09o0ULd59S-10" value="EAG" style="rounded=0;whiteSpace=wrap;html=1;fontSize=18;" vertex="1" parent="1">
          <mxGeometry x="300" y="430" width="160" height="50" as="geometry" />
        </mxCell>
        <mxCell id="UZv0-1ZAQY09o0ULd59S-11" value="Reverse proxy" style="rounded=0;whiteSpace=wrap;html=1;fontSize=18;" vertex="1" parent="1">
          <mxGeometry x="80" y="300" width="380" height="50" as="geometry" />
        </mxCell>
        <mxCell id="UZv0-1ZAQY09o0ULd59S-12" value="Сервер авторизации" style="rounded=0;whiteSpace=wrap;html=1;fontSize=18;" vertex="1" parent="1">
          <mxGeometry x="100" y="520" width="120" height="100" as="geometry" />
        </mxCell>
        <mxCell id="UZv0-1ZAQY09o0ULd59S-13" value="Сервисы платформы" style="rounded=0;whiteSpace=wrap;html=1;fontSize=18;" vertex="1" parent="1">
          <mxGeometry x="260" y="520" width="200" height="100" as="geometry" />
        </mxCell>
        <mxCell id="UZv0-1ZAQY09o0ULd59S-14" value="" style="rounded=0;whiteSpace=wrap;html=1;dashed=1;movable=0;resizable=0;rotatable=0;deletable=0;editable=0;locked=1;connectable=0;" vertex="1" parent="1">
          <mxGeometry x="80" y="680" width="720" height="380" as="geometry" />
        </mxCell>
        <mxCell id="UZv0-1ZAQY09o0ULd59S-15" value="API Server" style="rounded=0;whiteSpace=wrap;html=1;fontSize=18;" vertex="1" parent="1">
          <mxGeometry x="100" y="720" width="680" height="60" as="geometry" />
        </mxCell>
        <mxCell id="UZv0-1ZAQY09o0ULd59S-16" value="Kubernetes" style="text;html=1;align=center;verticalAlign=middle;whiteSpace=wrap;rounded=0;fontSize=18;" vertex="1" parent="1">
          <mxGeometry x="90" y="680" width="90" height="30" as="geometry" />
        </mxCell>
        <mxCell id="UZv0-1ZAQY09o0ULd59S-17" value="Контейнеры развернутых задач" style="rounded=0;whiteSpace=wrap;html=1;fontSize=18;" vertex="1" parent="1">
          <mxGeometry x="100" y="820" width="680" height="220" as="geometry" />
        </mxCell>
        <mxCell id="UZv0-1ZAQY09o0ULd59S-18" value="" style="endArrow=classic;html=1;rounded=0;exitX=0.447;exitY=1;exitDx=0;exitDy=0;exitPerimeter=0;fontSize=18;" edge="1" parent="1" source="UZv0-1ZAQY09o0ULd59S-11">
          <mxGeometry width="50" height="50" relative="1" as="geometry">
            <mxPoint x="310" y="570" as="sourcePoint" />
            <mxPoint x="250" y="430" as="targetPoint" />
          </mxGeometry>
        </mxCell>
        <mxCell id="UZv0-1ZAQY09o0ULd59S-19" value="" style="endArrow=classic;html=1;rounded=0;fontSize=18;" edge="1" parent="1">
          <mxGeometry width="50" height="50" relative="1" as="geometry">
            <mxPoint x="369.90999999999997" y="430" as="sourcePoint" />
            <mxPoint x="369.76" y="350" as="targetPoint" />
          </mxGeometry>
        </mxCell>
        <mxCell id="UZv0-1ZAQY09o0ULd59S-22" value="" style="endArrow=classic;html=1;rounded=0;exitX=0.313;exitY=1;exitDx=0;exitDy=0;exitPerimeter=0;fontSize=18;" edge="1" parent="1">
          <mxGeometry width="50" height="50" relative="1" as="geometry">
            <mxPoint x="344.50000000000006" y="270" as="sourcePoint" />
            <mxPoint x="345" y="300" as="targetPoint" />
          </mxGeometry>
        </mxCell>
        <mxCell id="UZv0-1ZAQY09o0ULd59S-23" value="" style="endArrow=classic;html=1;rounded=0;entryX=0.75;entryY=1;entryDx=0;entryDy=0;fontSize=18;" edge="1" parent="1">
          <mxGeometry width="50" height="50" relative="1" as="geometry">
            <mxPoint x="415" y="300" as="sourcePoint" />
            <mxPoint x="414.50000000000006" y="270" as="targetPoint" />
          </mxGeometry>
        </mxCell>
        <mxCell id="UZv0-1ZAQY09o0ULd59S-24" value="" style="endArrow=classic;html=1;rounded=0;fontSize=18;" edge="1" parent="1">
          <mxGeometry width="50" height="50" relative="1" as="geometry">
            <mxPoint x="269.52" y="480" as="sourcePoint" />
            <mxPoint x="269.52" y="520" as="targetPoint" />
          </mxGeometry>
        </mxCell>
        <mxCell id="UZv0-1ZAQY09o0ULd59S-27" value="" style="endArrow=classic;html=1;rounded=0;fontSize=18;" edge="1" parent="1">
          <mxGeometry width="50" height="50" relative="1" as="geometry">
            <mxPoint x="400" y="520" as="sourcePoint" />
            <mxPoint x="400.36" y="480" as="targetPoint" />
          </mxGeometry>
        </mxCell>
        <mxCell id="UZv0-1ZAQY09o0ULd59S-28" value="" style="endArrow=classic;html=1;rounded=0;exitX=1.006;exitY=0.35;exitDx=0;exitDy=0;exitPerimeter=0;fontSize=18;" edge="1" parent="1" source="UZv0-1ZAQY09o0ULd59S-12">
          <mxGeometry width="50" height="50" relative="1" as="geometry">
            <mxPoint x="330" y="570" as="sourcePoint" />
            <mxPoint x="260" y="555" as="targetPoint" />
          </mxGeometry>
        </mxCell>
        <mxCell id="UZv0-1ZAQY09o0ULd59S-29" value="" style="endArrow=classic;html=1;rounded=0;fontSize=18;" edge="1" parent="1">
          <mxGeometry width="50" height="50" relative="1" as="geometry">
            <mxPoint x="260" y="590" as="sourcePoint" />
            <mxPoint x="220" y="590" as="targetPoint" />
          </mxGeometry>
        </mxCell>
        <mxCell id="UZv0-1ZAQY09o0ULd59S-30" value="" style="endArrow=classic;html=1;rounded=0;fontSize=18;" edge="1" parent="1">
          <mxGeometry width="50" height="50" relative="1" as="geometry">
            <mxPoint x="310" y="620" as="sourcePoint" />
            <mxPoint x="310" y="720" as="targetPoint" />
          </mxGeometry>
        </mxCell>
        <mxCell id="UZv0-1ZAQY09o0ULd59S-31" value="" style="endArrow=classic;html=1;rounded=0;fontSize=18;" edge="1" parent="1">
          <mxGeometry width="50" height="50" relative="1" as="geometry">
            <mxPoint x="420" y="720" as="sourcePoint" />
            <mxPoint x="420" y="620" as="targetPoint" />
          </mxGeometry>
        </mxCell>
        <mxCell id="UZv0-1ZAQY09o0ULd59S-32" value="" style="endArrow=classic;html=1;rounded=0;fontSize=18;" edge="1" parent="1">
          <mxGeometry width="50" height="50" relative="1" as="geometry">
            <mxPoint x="370" y="780" as="sourcePoint" />
            <mxPoint x="370" y="820" as="targetPoint" />
          </mxGeometry>
        </mxCell>
        <mxCell id="UZv0-1ZAQY09o0ULd59S-33" value="" style="endArrow=classic;html=1;rounded=0;fontSize=18;" edge="1" parent="1">
          <mxGeometry width="50" height="50" relative="1" as="geometry">
            <mxPoint x="540" y="820" as="sourcePoint" />
            <mxPoint x="540" y="780" as="targetPoint" />
          </mxGeometry>
        </mxCell>
        <mxCell id="UZv0-1ZAQY09o0ULd59S-34" value="" style="endArrow=classic;html=1;rounded=0;exitX=0.313;exitY=1;exitDx=0;exitDy=0;exitPerimeter=0;fontSize=18;" edge="1" parent="1">
          <mxGeometry width="50" height="50" relative="1" as="geometry">
            <mxPoint x="124.75000000000006" y="270" as="sourcePoint" />
            <mxPoint x="125.25" y="300" as="targetPoint" />
          </mxGeometry>
        </mxCell>
        <mxCell id="UZv0-1ZAQY09o0ULd59S-35" value="" style="endArrow=classic;html=1;rounded=0;entryX=0.75;entryY=1;entryDx=0;entryDy=0;fontSize=18;" edge="1" parent="1">
          <mxGeometry width="50" height="50" relative="1" as="geometry">
            <mxPoint x="195.25" y="300" as="sourcePoint" />
            <mxPoint x="194.75000000000006" y="270" as="targetPoint" />
          </mxGeometry>
        </mxCell>
        <mxCell id="UZv0-1ZAQY09o0ULd59S-36" value="&lt;font style=&quot;font-size: 20px;&quot;&gt;БД&lt;/font&gt;" style="shape=cylinder3;whiteSpace=wrap;html=1;boundedLbl=1;backgroundOutline=1;size=15;" vertex="1" parent="1">
          <mxGeometry x="560" y="550" width="150" height="90" as="geometry" />
        </mxCell>
        <mxCell id="UZv0-1ZAQY09o0ULd59S-44" value="Брокер сообщений" style="rounded=0;whiteSpace=wrap;html=1;" vertex="1" parent="1">
          <mxGeometry x="560" y="400" width="150" height="90" as="geometry" />
        </mxCell>
        <mxCell id="UZv0-1ZAQY09o0ULd59S-45" value="" style="endArrow=classic;html=1;rounded=0;entryX=0.667;entryY=0;entryDx=0;entryDy=0;entryPerimeter=0;" edge="1" parent="1" target="UZv0-1ZAQY09o0ULd59S-44">
          <mxGeometry width="50" height="50" relative="1" as="geometry">
            <mxPoint x="460" y="230" as="sourcePoint" />
            <mxPoint x="510" y="180" as="targetPoint" />
            <Array as="points">
              <mxPoint x="660" y="230" />
            </Array>
          </mxGeometry>
        </mxCell>
        <mxCell id="UZv0-1ZAQY09o0ULd59S-46" value="" style="endArrow=none;html=1;rounded=0;endFill=0;startArrow=classic;startFill=1;" edge="1" parent="1">
          <mxGeometry width="50" height="50" relative="1" as="geometry">
            <mxPoint x="460" y="250" as="sourcePoint" />
            <mxPoint x="600" y="400" as="targetPoint" />
            <Array as="points">
              <mxPoint x="600" y="250" />
            </Array>
          </mxGeometry>
        </mxCell>
        <mxCell id="UZv0-1ZAQY09o0ULd59S-47" value="" style="endArrow=classic;html=1;rounded=0;entryX=0;entryY=0.222;entryDx=0;entryDy=0;entryPerimeter=0;" edge="1" parent="1" target="UZv0-1ZAQY09o0ULd59S-44">
          <mxGeometry width="50" height="50" relative="1" as="geometry">
            <mxPoint x="460" y="540" as="sourcePoint" />
            <mxPoint x="580" y="500" as="targetPoint" />
            <Array as="points">
              <mxPoint x="490" y="540" />
              <mxPoint x="490" y="420" />
            </Array>
          </mxGeometry>
        </mxCell>
        <mxCell id="UZv0-1ZAQY09o0ULd59S-48" value="" style="endArrow=none;html=1;rounded=0;entryX=0;entryY=0.222;entryDx=0;entryDy=0;entryPerimeter=0;startArrow=classic;startFill=1;endFill=0;" edge="1" parent="1">
          <mxGeometry width="50" height="50" relative="1" as="geometry">
            <mxPoint x="460" y="560" as="sourcePoint" />
            <mxPoint x="560" y="450" as="targetPoint" />
            <Array as="points">
              <mxPoint x="510" y="560" />
              <mxPoint x="510" y="450" />
            </Array>
          </mxGeometry>
        </mxCell>
        <mxCell id="UZv0-1ZAQY09o0ULd59S-49" value="" style="endArrow=classic;html=1;rounded=0;entryX=0;entryY=0.444;entryDx=0;entryDy=0;entryPerimeter=0;" edge="1" parent="1" target="UZv0-1ZAQY09o0ULd59S-36">
          <mxGeometry width="50" height="50" relative="1" as="geometry">
            <mxPoint x="460" y="590" as="sourcePoint" />
            <mxPoint x="510" y="540" as="targetPoint" />
          </mxGeometry>
        </mxCell>
        <mxCell id="UZv0-1ZAQY09o0ULd59S-50" value="" style="endArrow=classic;html=1;rounded=0;entryX=0;entryY=0.444;entryDx=0;entryDy=0;entryPerimeter=0;exitX=0;exitY=0;exitDx=0;exitDy=60;exitPerimeter=0;" edge="1" parent="1" source="UZv0-1ZAQY09o0ULd59S-36">
          <mxGeometry width="50" height="50" relative="1" as="geometry">
            <mxPoint x="360" y="610" as="sourcePoint" />
            <mxPoint x="460" y="610" as="targetPoint" />
          </mxGeometry>
        </mxCell>
      </root>
    </mxGraphModel>
  </diagram>
</mxfile>
